<svg xmlns="http://www.w3.org/2000/svg" viewBox="0 0 1000 190" width="1000" height="190" role="img" aria-label="39 projetos em 7 meses, 891 contribuições no último ano, 120 dias com entrega nova, 715 delas em repositório privado.">
  <title>Os números, sem maquiagem</title>
  <defs><clipPath id="c0_0"><rect x="51.0" y="38.0" width="40" height="66"/></clipPath><clipPath id="c0_1"><rect x="93.0" y="38.0" width="40" height="66"/></clipPath><clipPath id="c1_0"><rect x="293.0" y="38.0" width="40" height="66"/></clipPath><clipPath id="c1_1"><rect x="335.0" y="38.0" width="40" height="66"/></clipPath><clipPath id="c1_2"><rect x="377.0" y="38.0" width="40" height="66"/></clipPath><clipPath id="c2_0"><rect x="535.0" y="38.0" width="40" height="66"/></clipPath><clipPath id="c2_1"><rect x="577.0" y="38.0" width="40" height="66"/></clipPath><clipPath id="c2_2"><rect x="619.0" y="38.0" width="40" height="66"/></clipPath><clipPath id="c3_0"><rect x="777.0" y="38.0" width="40" height="66"/></clipPath><clipPath id="c3_1"><rect x="819.0" y="38.0" width="40" height="66"/></clipPath><clipPath id="c3_2"><rect x="861.0" y="38.0" width="40" height="66"/></clipPath></defs>
  <style>
    .n { font-family: 'Segoe UI', system-ui, -apple-system, 'Helvetica Neue', Arial, sans-serif; font-size: 62px; font-weight: 700; fill: #EAF7F8; }
    .l { font-family: 'Segoe UI', system-ui, -apple-system, 'Helvetica Neue', Arial, sans-serif; font-size: 15px; font-weight: 600; }
    .s { font-family: 'Cascadia Mono','JetBrains Mono',Consolas,'SF Mono','Roboto Mono',monospace; font-size: 11.5px; letter-spacing: 1.2px; }
  </style>
  <g><g clip-path="url(#c0_0)"><g transform="translate(54.0,-132.0)"><animateTransform attributeName="transform" type="translate" values="54.0,-1652.0;54.0,-132.0" keyTimes="0;1" dur="1.9s" begin="0.00s" calcMode="spline" keySplines="0.16 0.84 0.24 1" fill="freeze"/><text x="0" y="0.0" class="n">0</text><text x="0" y="76.0" class="n">1</text><text x="0" y="152.0" class="n">2</text><text x="0" y="228.0" class="n">3</text><text x="0" y="304.0" class="n">4</text><text x="0" y="380.0" class="n">5</text><text x="0" y="456.0" class="n">6</text><text x="0" y="532.0" class="n">7</text><text x="0" y="608.0" class="n">8</text><text x="0" y="684.0" class="n">9</text><text x="0" y="760.0" class="n">0</text><text x="0" y="836.0" class="n">1</text><text x="0" y="912.0" class="n">2</text><text x="0" y="988.0" class="n">3</text><text x="0" y="1064.0" class="n">4</text><text x="0" y="1140.0" class="n">5</text><text x="0" y="1216.0" class="n">6</text><text x="0" y="1292.0" class="n">7</text><text x="0" y="1368.0" class="n">8</text><text x="0" y="1444.0" class="n">9</text><text x="0" y="1520.0" class="n">0</text><text x="0" y="1596.0" class="n">1</text><text x="0" y="1672.0" class="n">2</text><text x="0" y="1748.0" class="n">3</text><text x="0" y="1824.0" class="n">4</text><text x="0" y="1900.0" class="n">5</text><text x="0" y="1976.0" class="n">6</text><text x="0" y="2052.0" class="n">7</text><text x="0" y="2128.0" class="n">8</text><text x="0" y="2204.0" class="n">9</text><text x="0" y="2280.0" class="n">0</text><text x="0" y="2356.0" class="n">1</text><text x="0" y="2432.0" class="n">2</text><text x="0" y="2508.0" class="n">3</text></g></g><g clip-path="url(#c0_1)"><g transform="translate(96.0,-588.0)"><animateTransform attributeName="transform" type="translate" values="96.0,-2868.0;96.0,-588.0" keyTimes="0;1" dur="1.9s" begin="0.12s" calcMode="spline" keySplines="0.16 0.84 0.24 1" fill="freeze"/><text x="0" y="0.0" class="n">0</text><text x="0" y="76.0" class="n">1</text><text x="0" y="152.0" class="n">2</text><text x="0" y="228.0" class="n">3</text><text x="0" y="304.0" class="n">4</text><text x="0" y="380.0" class="n">5</text><text x="0" y="456.0" class="n">6</text><text x="0" y="532.0" class="n">7</text><text x="0" y="608.0" class="n">8</text><text x="0" y="684.0" class="n">9</text><text x="0" y="760.0" class="n">0</text><text x="0" y="836.0" class="n">1</text><text x="0" y="912.0" class="n">2</text><text x="0" y="988.0" class="n">3</text><text x="0" y="1064.0" class="n">4</text><text x="0" y="1140.0" class="n">5</text><text x="0" y="1216.0" class="n">6</text><text x="0" y="1292.0" class="n">7</text><text x="0" y="1368.0" class="n">8</text><text x="0" y="1444.0" class="n">9</text><text x="0" y="1520.0" class="n">0</text><text x="0" y="1596.0" class="n">1</text><text x="0" y="1672.0" class="n">2</text><text x="0" y="1748.0" class="n">3</text><text x="0" y="1824.0" class="n">4</text><text x="0" y="1900.0" class="n">5</text><text x="0" y="1976.0" class="n">6</text><text x="0" y="2052.0" class="n">7</text><text x="0" y="2128.0" class="n">8</text><text x="0" y="2204.0" class="n">9</text><text x="0" y="2280.0" class="n">0</text><text x="0" y="2356.0" class="n">1</text><text x="0" y="2432.0" class="n">2</text><text x="0" y="2508.0" class="n">3</text><text x="0" y="2584.0" class="n">4</text><text x="0" y="2660.0" class="n">5</text><text x="0" y="2736.0" class="n">6</text><text x="0" y="2812.0" class="n">7</text><text x="0" y="2888.0" class="n">8</text><text x="0" y="2964.0" class="n">9</text></g></g></g>
  <text x="54.0" y="126.0" class="l" fill="#3FD0C9">projetos</text><text x="54.0" y="146.0" class="s" fill="#7FA6AE">em 7 meses</text>
  <g><g clip-path="url(#c1_0)"><g transform="translate(296.0,-512.0)"><animateTransform attributeName="transform" type="translate" values="296.0,-2792.0;296.0,-512.0" keyTimes="0;1" dur="1.9s" begin="0.36s" calcMode="spline" keySplines="0.16 0.84 0.24 1" fill="freeze"/><text x="0" y="0.0" class="n">0</text><text x="0" y="76.0" class="n">1</text><text x="0" y="152.0" class="n">2</text><text x="0" y="228.0" class="n">3</text><text x="0" y="304.0" class="n">4</text><text x="0" y="380.0" class="n">5</text><text x="0" y="456.0" class="n">6</text><text x="0" y="532.0" class="n">7</text><text x="0" y="608.0" class="n">8</text><text x="0" y="684.0" class="n">9</text><text x="0" y="760.0" class="n">0</text><text x="0" y="836.0" class="n">1</text><text x="0" y="912.0" class="n">2</text><text x="0" y="988.0" class="n">3</text><text x="0" y="1064.0" class="n">4</text><text x="0" y="1140.0" class="n">5</text><text x="0" y="1216.0" class="n">6</text><text x="0" y="1292.0" class="n">7</text><text x="0" y="1368.0" class="n">8</text><text x="0" y="1444.0" class="n">9</text><text x="0" y="1520.0" class="n">0</text><text x="0" y="1596.0" class="n">1</text><text x="0" y="1672.0" class="n">2</text><text x="0" y="1748.0" class="n">3</text><text x="0" y="1824.0" class="n">4</text><text x="0" y="1900.0" class="n">5</text><text x="0" y="1976.0" class="n">6</text><text x="0" y="2052.0" class="n">7</text><text x="0" y="2128.0" class="n">8</text><text x="0" y="2204.0" class="n">9</text><text x="0" y="2280.0" class="n">0</text><text x="0" y="2356.0" class="n">1</text><text x="0" y="2432.0" class="n">2</text><text x="0" y="2508.0" class="n">3</text><text x="0" y="2584.0" class="n">4</text><text x="0" y="2660.0" class="n">5</text><text x="0" y="2736.0" class="n">6</text><text x="0" y="2812.0" class="n">7</text><text x="0" y="2888.0" class="n">8</text></g></g><g clip-path="url(#c1_1)"><g transform="translate(338.0,-588.0)"><animateTransform attributeName="transform" type="translate" values="338.0,-2108.0;338.0,-588.0" keyTimes="0;1" dur="1.9s" begin="0.48s" calcMode="spline" keySplines="0.16 0.84 0.24 1" fill="freeze"/><text x="0" y="0.0" class="n">0</text><text x="0" y="76.0" class="n">1</text><text x="0" y="152.0" class="n">2</text><text x="0" y="228.0" class="n">3</text><text x="0" y="304.0" class="n">4</text><text x="0" y="380.0" class="n">5</text><text x="0" y="456.0" class="n">6</text><text x="0" y="532.0" class="n">7</text><text x="0" y="608.0" class="n">8</text><text x="0" y="684.0" class="n">9</text><text x="0" y="760.0" class="n">0</text><text x="0" y="836.0" class="n">1</text><text x="0" y="912.0" class="n">2</text><text x="0" y="988.0" class="n">3</text><text x="0" y="1064.0" class="n">4</text><text x="0" y="1140.0" class="n">5</text><text x="0" y="1216.0" class="n">6</text><text x="0" y="1292.0" class="n">7</text><text x="0" y="1368.0" class="n">8</text><text x="0" y="1444.0" class="n">9</text><text x="0" y="1520.0" class="n">0</text><text x="0" y="1596.0" class="n">1</text><text x="0" y="1672.0" class="n">2</text><text x="0" y="1748.0" class="n">3</text><text x="0" y="1824.0" class="n">4</text><text x="0" y="1900.0" class="n">5</text><text x="0" y="1976.0" class="n">6</text><text x="0" y="2052.0" class="n">7</text><text x="0" y="2128.0" class="n">8</text><text x="0" y="2204.0" class="n">9</text><text x="0" y="2280.0" class="n">0</text><text x="0" y="2356.0" class="n">1</text><text x="0" y="2432.0" class="n">2</text><text x="0" y="2508.0" class="n">3</text><text x="0" y="2584.0" class="n">4</text><text x="0" y="2660.0" class="n">5</text><text x="0" y="2736.0" class="n">6</text><text x="0" y="2812.0" class="n">7</text><text x="0" y="2888.0" class="n">8</text><text x="0" y="2964.0" class="n">9</text></g></g><g clip-path="url(#c1_2)"><g transform="translate(380.0,20.0)"><animateTransform attributeName="transform" type="translate" values="380.0,-2260.0;380.0,20.0" keyTimes="0;1" dur="1.9s" begin="0.60s" calcMode="spline" keySplines="0.16 0.84 0.24 1" fill="freeze"/><text x="0" y="0.0" class="n">0</text><text x="0" y="76.0" class="n">1</text><text x="0" y="152.0" class="n">2</text><text x="0" y="228.0" class="n">3</text><text x="0" y="304.0" class="n">4</text><text x="0" y="380.0" class="n">5</text><text x="0" y="456.0" class="n">6</text><text x="0" y="532.0" class="n">7</text><text x="0" y="608.0" class="n">8</text><text x="0" y="684.0" class="n">9</text><text x="0" y="760.0" class="n">0</text><text x="0" y="836.0" class="n">1</text><text x="0" y="912.0" class="n">2</text><text x="0" y="988.0" class="n">3</text><text x="0" y="1064.0" class="n">4</text><text x="0" y="1140.0" class="n">5</text><text x="0" y="1216.0" class="n">6</text><text x="0" y="1292.0" class="n">7</text><text x="0" y="1368.0" class="n">8</text><text x="0" y="1444.0" class="n">9</text><text x="0" y="1520.0" class="n">0</text><text x="0" y="1596.0" class="n">1</text><text x="0" y="1672.0" class="n">2</text><text x="0" y="1748.0" class="n">3</text><text x="0" y="1824.0" class="n">4</text><text x="0" y="1900.0" class="n">5</text><text x="0" y="1976.0" class="n">6</text><text x="0" y="2052.0" class="n">7</text><text x="0" y="2128.0" class="n">8</text><text x="0" y="2204.0" class="n">9</text><text x="0" y="2280.0" class="n">0</text><text x="0" y="2356.0" class="n">1</text></g></g></g>
  <text x="296.0" y="126.0" class="l" fill="#3FD0C9">contribuições</text><text x="296.0" y="146.0" class="s" fill="#7FA6AE">no último ano</text>
  <g><g clip-path="url(#c2_0)"><g transform="translate(538.0,20.0)"><animateTransform attributeName="transform" type="translate" values="538.0,-1500.0;538.0,20.0" keyTimes="0;1" dur="1.9s" begin="0.72s" calcMode="spline" keySplines="0.16 0.84 0.24 1" fill="freeze"/><text x="0" y="0.0" class="n">0</text><text x="0" y="76.0" class="n">1</text><text x="0" y="152.0" class="n">2</text><text x="0" y="228.0" class="n">3</text><text x="0" y="304.0" class="n">4</text><text x="0" y="380.0" class="n">5</text><text x="0" y="456.0" class="n">6</text><text x="0" y="532.0" class="n">7</text><text x="0" y="608.0" class="n">8</text><text x="0" y="684.0" class="n">9</text><text x="0" y="760.0" class="n">0</text><text x="0" y="836.0" class="n">1</text><text x="0" y="912.0" class="n">2</text><text x="0" y="988.0" class="n">3</text><text x="0" y="1064.0" class="n">4</text><text x="0" y="1140.0" class="n">5</text><text x="0" y="1216.0" class="n">6</text><text x="0" y="1292.0" class="n">7</text><text x="0" y="1368.0" class="n">8</text><text x="0" y="1444.0" class="n">9</text><text x="0" y="1520.0" class="n">0</text><text x="0" y="1596.0" class="n">1</text><text x="0" y="1672.0" class="n">2</text><text x="0" y="1748.0" class="n">3</text><text x="0" y="1824.0" class="n">4</text><text x="0" y="1900.0" class="n">5</text><text x="0" y="1976.0" class="n">6</text><text x="0" y="2052.0" class="n">7</text><text x="0" y="2128.0" class="n">8</text><text x="0" y="2204.0" class="n">9</text><text x="0" y="2280.0" class="n">0</text><text x="0" y="2356.0" class="n">1</text></g></g><g clip-path="url(#c2_1)"><g transform="translate(580.0,-56.0)"><animateTransform attributeName="transform" type="translate" values="580.0,-2336.0;580.0,-56.0" keyTimes="0;1" dur="1.9s" begin="0.84s" calcMode="spline" keySplines="0.16 0.84 0.24 1" fill="freeze"/><text x="0" y="0.0" class="n">0</text><text x="0" y="76.0" class="n">1</text><text x="0" y="152.0" class="n">2</text><text x="0" y="228.0" class="n">3</text><text x="0" y="304.0" class="n">4</text><text x="0" y="380.0" class="n">5</text><text x="0" y="456.0" class="n">6</text><text x="0" y="532.0" class="n">7</text><text x="0" y="608.0" class="n">8</text><text x="0" y="684.0" class="n">9</text><text x="0" y="760.0" class="n">0</text><text x="0" y="836.0" class="n">1</text><text x="0" y="912.0" class="n">2</text><text x="0" y="988.0" class="n">3</text><text x="0" y="1064.0" class="n">4</text><text x="0" y="1140.0" class="n">5</text><text x="0" y="1216.0" class="n">6</text><text x="0" y="1292.0" class="n">7</text><text x="0" y="1368.0" class="n">8</text><text x="0" y="1444.0" class="n">9</text><text x="0" y="1520.0" class="n">0</text><text x="0" y="1596.0" class="n">1</text><text x="0" y="1672.0" class="n">2</text><text x="0" y="1748.0" class="n">3</text><text x="0" y="1824.0" class="n">4</text><text x="0" y="1900.0" class="n">5</text><text x="0" y="1976.0" class="n">6</text><text x="0" y="2052.0" class="n">7</text><text x="0" y="2128.0" class="n">8</text><text x="0" y="2204.0" class="n">9</text><text x="0" y="2280.0" class="n">0</text><text x="0" y="2356.0" class="n">1</text><text x="0" y="2432.0" class="n">2</text></g></g><g clip-path="url(#c2_2)"><g transform="translate(622.0,96.0)"><animateTransform attributeName="transform" type="translate" values="622.0,-1424.0;622.0,96.0" keyTimes="0;1" dur="1.9s" begin="0.96s" calcMode="spline" keySplines="0.16 0.84 0.24 1" fill="freeze"/><text x="0" y="0.0" class="n">0</text><text x="0" y="76.0" class="n">1</text><text x="0" y="152.0" class="n">2</text><text x="0" y="228.0" class="n">3</text><text x="0" y="304.0" class="n">4</text><text x="0" y="380.0" class="n">5</text><text x="0" y="456.0" class="n">6</text><text x="0" y="532.0" class="n">7</text><text x="0" y="608.0" class="n">8</text><text x="0" y="684.0" class="n">9</text><text x="0" y="760.0" class="n">0</text><text x="0" y="836.0" class="n">1</text><text x="0" y="912.0" class="n">2</text><text x="0" y="988.0" class="n">3</text><text x="0" y="1064.0" class="n">4</text><text x="0" y="1140.0" class="n">5</text><text x="0" y="1216.0" class="n">6</text><text x="0" y="1292.0" class="n">7</text><text x="0" y="1368.0" class="n">8</text><text x="0" y="1444.0" class="n">9</text><text x="0" y="1520.0" class="n">0</text><text x="0" y="1596.0" class="n">1</text><text x="0" y="1672.0" class="n">2</text><text x="0" y="1748.0" class="n">3</text><text x="0" y="1824.0" class="n">4</text><text x="0" y="1900.0" class="n">5</text><text x="0" y="1976.0" class="n">6</text><text x="0" y="2052.0" class="n">7</text><text x="0" y="2128.0" class="n">8</text><text x="0" y="2204.0" class="n">9</text><text x="0" y="2280.0" class="n">0</text></g></g></g>
  <text x="538.0" y="126.0" class="l" fill="#3FD0C9">dias</text><text x="538.0" y="146.0" class="s" fill="#7FA6AE">com entrega nova</text>
  <g><g clip-path="url(#c3_0)"><g transform="translate(780.0,-436.0)"><animateTransform attributeName="transform" type="translate" values="780.0,-2716.0;780.0,-436.0" keyTimes="0;1" dur="1.9s" begin="1.08s" calcMode="spline" keySplines="0.16 0.84 0.24 1" fill="freeze"/><text x="0" y="0.0" class="n">0</text><text x="0" y="76.0" class="n">1</text><text x="0" y="152.0" class="n">2</text><text x="0" y="228.0" class="n">3</text><text x="0" y="304.0" class="n">4</text><text x="0" y="380.0" class="n">5</text><text x="0" y="456.0" class="n">6</text><text x="0" y="532.0" class="n">7</text><text x="0" y="608.0" class="n">8</text><text x="0" y="684.0" class="n">9</text><text x="0" y="760.0" class="n">0</text><text x="0" y="836.0" class="n">1</text><text x="0" y="912.0" class="n">2</text><text x="0" y="988.0" class="n">3</text><text x="0" y="1064.0" class="n">4</text><text x="0" y="1140.0" class="n">5</text><text x="0" y="1216.0" class="n">6</text><text x="0" y="1292.0" class="n">7</text><text x="0" y="1368.0" class="n">8</text><text x="0" y="1444.0" class="n">9</text><text x="0" y="1520.0" class="n">0</text><text x="0" y="1596.0" class="n">1</text><text x="0" y="1672.0" class="n">2</text><text x="0" y="1748.0" class="n">3</text><text x="0" y="1824.0" class="n">4</text><text x="0" y="1900.0" class="n">5</text><text x="0" y="1976.0" class="n">6</text><text x="0" y="2052.0" class="n">7</text><text x="0" y="2128.0" class="n">8</text><text x="0" y="2204.0" class="n">9</text><text x="0" y="2280.0" class="n">0</text><text x="0" y="2356.0" class="n">1</text><text x="0" y="2432.0" class="n">2</text><text x="0" y="2508.0" class="n">3</text><text x="0" y="2584.0" class="n">4</text><text x="0" y="2660.0" class="n">5</text><text x="0" y="2736.0" class="n">6</text><text x="0" y="2812.0" class="n">7</text></g></g><g clip-path="url(#c3_1)"><g transform="translate(822.0,20.0)"><animateTransform attributeName="transform" type="translate" values="822.0,-1500.0;822.0,20.0" keyTimes="0;1" dur="1.9s" begin="1.20s" calcMode="spline" keySplines="0.16 0.84 0.24 1" fill="freeze"/><text x="0" y="0.0" class="n">0</text><text x="0" y="76.0" class="n">1</text><text x="0" y="152.0" class="n">2</text><text x="0" y="228.0" class="n">3</text><text x="0" y="304.0" class="n">4</text><text x="0" y="380.0" class="n">5</text><text x="0" y="456.0" class="n">6</text><text x="0" y="532.0" class="n">7</text><text x="0" y="608.0" class="n">8</text><text x="0" y="684.0" class="n">9</text><text x="0" y="760.0" class="n">0</text><text x="0" y="836.0" class="n">1</text><text x="0" y="912.0" class="n">2</text><text x="0" y="988.0" class="n">3</text><text x="0" y="1064.0" class="n">4</text><text x="0" y="1140.0" class="n">5</text><text x="0" y="1216.0" class="n">6</text><text x="0" y="1292.0" class="n">7</text><text x="0" y="1368.0" class="n">8</text><text x="0" y="1444.0" class="n">9</text><text x="0" y="1520.0" class="n">0</text><text x="0" y="1596.0" class="n">1</text><text x="0" y="1672.0" class="n">2</text><text x="0" y="1748.0" class="n">3</text><text x="0" y="1824.0" class="n">4</text><text x="0" y="1900.0" class="n">5</text><text x="0" y="1976.0" class="n">6</text><text x="0" y="2052.0" class="n">7</text><text x="0" y="2128.0" class="n">8</text><text x="0" y="2204.0" class="n">9</text><text x="0" y="2280.0" class="n">0</text><text x="0" y="2356.0" class="n">1</text></g></g><g clip-path="url(#c3_2)"><g transform="translate(864.0,-284.0)"><animateTransform attributeName="transform" type="translate" values="864.0,-2564.0;864.0,-284.0" keyTimes="0;1" dur="1.9s" begin="1.32s" calcMode="spline" keySplines="0.16 0.84 0.24 1" fill="freeze"/><text x="0" y="0.0" class="n">0</text><text x="0" y="76.0" class="n">1</text><text x="0" y="152.0" class="n">2</text><text x="0" y="228.0" class="n">3</text><text x="0" y="304.0" class="n">4</text><text x="0" y="380.0" class="n">5</text><text x="0" y="456.0" class="n">6</text><text x="0" y="532.0" class="n">7</text><text x="0" y="608.0" class="n">8</text><text x="0" y="684.0" class="n">9</text><text x="0" y="760.0" class="n">0</text><text x="0" y="836.0" class="n">1</text><text x="0" y="912.0" class="n">2</text><text x="0" y="988.0" class="n">3</text><text x="0" y="1064.0" class="n">4</text><text x="0" y="1140.0" class="n">5</text><text x="0" y="1216.0" class="n">6</text><text x="0" y="1292.0" class="n">7</text><text x="0" y="1368.0" class="n">8</text><text x="0" y="1444.0" class="n">9</text><text x="0" y="1520.0" class="n">0</text><text x="0" y="1596.0" class="n">1</text><text x="0" y="1672.0" class="n">2</text><text x="0" y="1748.0" class="n">3</text><text x="0" y="1824.0" class="n">4</text><text x="0" y="1900.0" class="n">5</text><text x="0" y="1976.0" class="n">6</text><text x="0" y="2052.0" class="n">7</text><text x="0" y="2128.0" class="n">8</text><text x="0" y="2204.0" class="n">9</text><text x="0" y="2280.0" class="n">0</text><text x="0" y="2356.0" class="n">1</text><text x="0" y="2432.0" class="n">2</text><text x="0" y="2508.0" class="n">3</text><text x="0" y="2584.0" class="n">4</text><text x="0" y="2660.0" class="n">5</text></g></g></g>
  <text x="780.0" y="126.0" class="l" fill="#3FD0C9">delas</text><text x="780.0" y="146.0" class="s" fill="#7FA6AE">em repositório privado</text>
</svg>
