<svg xmlns="http://www.w3.org/2000/svg" viewBox="0 0 1000 150" width="1000" height="150" role="img" aria-label="INSONE, Nights Owed. Every night you skip by sleeping, a carpenter stays awake in your place. When the debt piles up, he comes to collect. Story, cutscenes and three endings.">
  <title>INSONE, Nights Owed</title>
  <style>
    .t { font-family: 'Segoe UI', system-ui, -apple-system, 'Helvetica Neue', Arial, sans-serif; font-size: 27px; font-weight: 800; fill: #F0EDE8; letter-spacing: -.6px; }
    .f { font-family: 'Segoe UI', system-ui, -apple-system, 'Helvetica Neue', Arial, sans-serif; font-size: 14.5px; fill: #BFB2AA; }
    .m { font-family: 'Cascadia Mono','JetBrains Mono',Consolas,'SF Mono','Roboto Mono',monospace; font-size: 10.5px; letter-spacing: 1.6px; fill: #7F706A; }
    .e { font-family: 'Cascadia Mono','JetBrains Mono',Consolas,'SF Mono','Roboto Mono',monospace; font-size: 10.5px; letter-spacing: 1.4px; fill: #E0574B; }
  </style>
  <rect x=".5" y=".5" width="999" height="149" fill="#07050A" stroke="#E0574B" stroke-opacity=".35"/>
  <rect x="1" y="1" width="149" height="148" fill="#120B10"/>
  <path d="M150.5 1 V149" stroke="#E0574B" stroke-opacity=".25"/>
  <g><rect x="39.0" y="54.0" width="24.0" height="6.0" fill="#F0EDE8"/><rect x="39.0" y="60.0" width="24.0" height="6.0" fill="#F0EDE8"/><rect x="63.0" y="60.0" width="48.0" height="6.0" fill="#C4453B"/><rect x="39.0" y="66.0" width="24.0" height="6.0" fill="#F0EDE8"/><rect x="63.0" y="66.0" width="48.0" height="6.0" fill="#C4453B"/><rect x="39.0" y="72.0" width="72.0" height="6.0" fill="#8A6340"/><rect x="39.0" y="78.0" width="6.0" height="6.0" fill="#8A6340"/><rect x="105.0" y="78.0" width="6.0" height="6.0" fill="#8A6340"/><rect x="20" y="42" width="110" height="0" fill="#07050A" opacity=".9"><animate attributeName="height" values="0;0;52;52;0" keyTimes="0;.34;.52;.70;1" dur="6.5s" repeatCount="indefinite"/></rect><g opacity="0"><animate attributeName="opacity" values="0;0;1;1;0" keyTimes="0;.54;.60;.68;.74" dur="6.5s" repeatCount="indefinite"/><circle cx="75" cy="68" r="9" fill="none" stroke="#E0574B" stroke-width="2.4"/><circle cx="75" cy="68" r="3.4" fill="#E0574B"/></g></g>
  <text x="178" y="46" class="t">INSONE, Nights Owed</text>
  <text x="178" y="74" class="f">Every night you skip by sleeping, a carpenter stays awake in your place.</text>
  <text x="178" y="94" class="f">When the debt piles up, he comes to collect. Story, cutscenes and three endings.</text>
  <text x="178" y="126" class="m">NEOFORGE 1.21.1 + 26.2 · ORIGINAL STORY</text>
  <rect x="880.8" y="22" width="97.2" height="22" fill="none" stroke="#E0574B" stroke-opacity=".6"/>
  <text x="929.4" y="37" class="e" text-anchor="middle">in progress</text>
</svg>
